<?xml version="1.0" standalone="no"?>
<!DOCTYPE svg PUBLIC "-//W3C//DTD SVG 20010904//EN"
 "http://www.w3.org/TR/2001/REC-SVG-20010904/DTD/svg10.dtd">
<svg version="1.0" xmlns="http://www.w3.org/2000/svg"
 width="1024.000000pt" height="1024.000000pt" viewBox="0 0 1024.000000 1024.000000"
 preserveAspectRatio="xMidYMid meet">
<metadata>
Created by potrace 1.14, written by Peter Selinger 2001-2017
</metadata>
<g transform="translate(0.000000,1024.000000) scale(0.100000,-0.100000)"
fill="#000000" stroke="none">
<path d="M5016 9809 c2 -3 -33 -5 -76 -4 -44 0 -80 -3 -80 -8 0 -4 -14 -6 -30
-3 -17 2 -28 1 -26 -3 5 -8 -30 -10 -191 -13 -56 -2 -99 -6 -97 -10 3 -4 -9
-6 -25 -4 -17 2 -31 -1 -31 -6 0 -6 -6 -8 -14 -5 -7 3 -19 0 -26 -6 -10 -9
-11 -9 -5 3 7 13 5 12 -11 -1 -17 -14 -45 -18 -149 -23 -16 -1 -36 -5 -42 -9
-7 -5 -18 -5 -25 -1 -6 4 -8 3 -4 -4 7 -12 -29 -26 -44 -17 -5 3 -10 2 -10 -3
0 -4 -17 -9 -37 -10 -59 -2 -92 -9 -110 -24 -9 -7 -18 -12 -20 -10 -1 1 -4 2
-5 1 -20 -6 -94 -18 -125 -21 -7 -1 -15 -8 -18 -16 -3 -8 -12 -12 -20 -8 -8 3
-17 1 -20 -5 -4 -5 -17 -7 -31 -5 -13 3 -24 1 -24 -3 0 -3 -10 -7 -22 -8 -11
-1 -24 -7 -28 -13 -6 -10 -36 -18 -88 -24 -13 -2 -28 -9 -33 -17 -5 -8 -9 -9
-9 -4 0 6 -4 4 -8 -2 -5 -7 -21 -14 -38 -16 -16 -2 -39 -9 -50 -15 -12 -6 -25
-8 -29 -4 -5 4 -5 1 -1 -5 4 -7 2 -14 -3 -14 -14 -2 -30 -6 -33 -9 -3 -2 -26
-8 -49 -13 -10 -1 -25 -9 -34 -17 -9 -8 -22 -15 -29 -16 -30 -5 -42 -10 -51
-22 -6 -7 -19 -15 -30 -17 -11 -2 -20 -4 -20 -5 0 -1 -8 -3 -19 -5 -10 -2 -28
-12 -40 -23 -11 -11 -28 -20 -36 -20 -27 -1 -49 -8 -57 -17 -4 -4 -2 -5 5 -1
6 4 12 5 12 2 0 -8 -38 -27 -62 -31 -11 -3 -27 -12 -35 -22 -8 -10 -11 -11 -7
-3 5 11 1 10 -13 -3 -12 -10 -28 -19 -35 -21 -8 -1 -25 -11 -38 -23 -12 -12
-27 -20 -31 -17 -4 2 -10 0 -14 -6 -4 -6 -11 -8 -16 -5 -5 4 -9 -1 -9 -10 0
-9 -4 -13 -10 -10 -5 3 -10 2 -10 -3 0 -6 -11 -13 -24 -16 -13 -3 -26 -14 -29
-25 -3 -14 -12 -19 -31 -17 -15 2 -33 -2 -39 -8 -27 -26 -75 -55 -81 -49 -3 3
-6 2 -6 -4 0 -6 -25 -27 -55 -47 -30 -20 -55 -33 -55 -29 0 4 -7 -3 -16 -15
-8 -12 -20 -20 -25 -17 -5 4 -9 2 -9 -4 0 -5 -16 -19 -35 -31 -19 -11 -49 -35
-67 -53 -100 -98 -252 -232 -260 -229 -4 1 -7 -1 -6 -5 4 -10 -145 -158 -155
-155 -4 1 -6 -1 -5 -5 5 -14 -65 -93 -75 -86 -6 3 -7 2 -4 -4 4 -6 -43 -61
-104 -124 -61 -63 -108 -108 -104 -100 5 9 4 12 -3 7 -7 -4 -12 -13 -12 -20 0
-7 -18 -26 -41 -40 -22 -15 -38 -30 -35 -33 9 -9 -14 -44 -25 -38 -5 4 -12 -2
-16 -12 -4 -10 -19 -30 -35 -44 -15 -15 -24 -29 -21 -33 3 -3 -1 -6 -10 -6 -9
0 -19 -5 -23 -12 -5 -7 -2 -9 7 -4 8 4 5 -1 -7 -11 -11 -10 -19 -24 -17 -30 2
-6 -5 -17 -16 -23 -12 -6 -21 -17 -21 -25 0 -8 -5 -15 -12 -15 -6 0 -8 -3 -5
-7 4 -3 -5 -17 -19 -30 -14 -12 -22 -23 -19 -23 3 0 1 -9 -5 -20 -6 -11 -15
-18 -21 -15 -5 4 -9 3 -8 -2 4 -16 -20 -62 -38 -71 -10 -6 -18 -14 -17 -19 2
-19 -9 -42 -23 -47 -8 -3 -11 -10 -8 -16 3 -5 1 -10 -5 -10 -6 0 -8 -4 -5 -10
3 -5 1 -10 -5 -10 -6 0 -8 -4 -5 -10 3 -5 1 -10 -6 -10 -7 0 -10 -3 -7 -6 4
-3 -2 -14 -13 -25 -11 -11 -17 -24 -14 -29 4 -6 1 -10 -5 -10 -6 0 -9 -3 -7
-7 7 -11 -19 -33 -29 -25 -4 4 -4 -1 -1 -10 4 -10 2 -18 -4 -18 -6 0 -7 -5 -4
-11 4 -6 -2 -21 -14 -33 -12 -13 -24 -33 -26 -46 -2 -12 -11 -30 -18 -39 -14
-16 -28 -45 -33 -69 -1 -8 -11 -20 -21 -29 -10 -8 -11 -11 -3 -7 13 7 13 6 0
-10 -8 -10 -15 -27 -17 -38 -2 -12 -10 -26 -18 -32 -9 -6 -18 -25 -21 -41 -3
-17 -12 -41 -21 -54 -11 -18 -12 -22 -2 -16 8 3 5 -1 -6 -10 -11 -9 -19 -21
-17 -27 2 -6 0 -18 -4 -27 -4 -9 -8 -20 -8 -24 -1 -4 -7 -12 -15 -16 -7 -5
-11 -13 -7 -19 3 -6 1 -16 -6 -24 -7 -7 -14 -29 -16 -48 -2 -19 -8 -39 -14
-45 -8 -7 -8 -6 -3 4 5 9 4 12 -3 7 -6 -3 -9 -15 -7 -26 2 -11 1 -20 -3 -20
-4 0 -8 -8 -9 -17 -2 -28 -8 -46 -23 -73 -8 -14 -13 -31 -12 -37 2 -7 -2 -13
-7 -13 -5 0 -8 -10 -6 -22 3 -12 -2 -33 -11 -46 -9 -14 -11 -21 -5 -18 7 5 9
1 5 -8 -3 -9 -10 -13 -15 -10 -5 3 -6 -2 -3 -10 3 -9 2 -16 -3 -16 -5 0 -9
-15 -10 -32 -1 -53 -8 -76 -29 -99 -11 -14 -13 -19 -4 -14 12 7 13 6 3 -7 -7
-8 -10 -18 -7 -21 4 -3 3 -14 -1 -24 -5 -10 -9 -29 -10 -43 -1 -14 -3 -28 -5
-32 -5 -13 -7 -27 -9 -44 0 -8 -6 -12 -11 -9 -7 4 -9 -3 -6 -19 3 -14 1 -26
-3 -26 -4 0 -7 -11 -7 -25 2 -32 -10 -132 -19 -165 -3 -14 -7 -31 -7 -37 -1
-7 -4 -13 -8 -13 -4 0 -6 -13 -5 -30 1 -16 -1 -30 -4 -30 -3 0 -7 -44 -9 -98
-4 -171 -6 -192 -13 -192 -3 0 -5 -13 -4 -30 1 -16 0 -30 -4 -30 -4 0 -7 -33
-9 -72 -1 -40 -3 -122 -4 -181 -2 -60 -1 -110 3 -112 3 -3 5 -34 4 -70 -1 -36
2 -65 7 -65 5 0 6 -13 3 -30 -3 -16 -2 -30 3 -30 8 0 9 -15 14 -180 2 -52 6
-99 9 -105 4 -5 6 -22 5 -37 -1 -16 1 -28 5 -28 4 0 6 -11 4 -25 -1 -14 2 -25
7 -25 5 0 7 -4 4 -9 -4 -5 -2 -11 3 -13 5 -1 11 -38 13 -80 1 -43 6 -78 10
-78 4 0 5 -9 3 -19 -2 -11 3 -25 11 -32 8 -6 12 -22 10 -35 -3 -13 -1 -26 4
-29 4 -3 7 -16 5 -30 -1 -14 1 -25 6 -25 4 0 6 -8 4 -19 -2 -10 3 -31 10 -45
10 -19 11 -25 2 -21 -7 4 -5 1 4 -7 9 -7 15 -23 14 -35 -1 -13 2 -23 7 -23 4
0 6 -13 3 -30 -3 -18 -1 -30 5 -30 6 0 8 -4 5 -10 -3 -5 -1 -10 5 -10 7 0 9
-7 6 -16 -4 -10 -2 -13 6 -8 8 5 9 2 5 -9 -3 -9 -2 -19 3 -22 5 -3 9 -13 9
-23 0 -23 5 -44 15 -61 7 -10 5 -12 -5 -7 -8 4 -6 1 3 -7 10 -8 15 -17 11 -20
-3 -4 -1 -7 6 -7 7 0 11 -7 8 -15 -4 -8 -2 -17 4 -21 6 -3 8 -12 5 -20 -3 -8
-1 -14 4 -14 5 0 7 -7 4 -15 -4 -8 1 -17 10 -21 9 -3 13 -10 10 -15 -3 -5 -1
-9 5 -9 5 0 10 -8 10 -17 0 -40 7 -68 16 -75 5 -4 10 -11 10 -15 1 -4 6 -18
13 -31 7 -12 12 -29 10 -37 -2 -7 6 -21 17 -30 11 -9 14 -13 6 -10 -10 6 -9 2
2 -16 9 -13 17 -33 19 -44 2 -11 11 -29 20 -39 10 -10 15 -23 12 -28 -3 -4 0
-8 6 -8 7 0 10 -6 7 -12 -2 -7 7 -28 21 -47 14 -19 19 -31 11 -26 -11 7 -12 6
-2 -7 7 -8 10 -18 6 -21 -3 -4 -1 -7 6 -7 7 0 9 -4 6 -10 -3 -5 -2 -10 4 -10
12 0 31 -32 36 -62 3 -12 14 -31 26 -44 12 -12 18 -27 14 -33 -3 -6 -1 -11 5
-11 6 0 8 -5 5 -10 -3 -6 -1 -10 4 -10 6 0 11 -7 11 -15 0 -8 4 -15 9 -15 8 0
24 -32 26 -52 0 -3 4 -10 9 -15 5 -5 6 -2 1 6 -5 9 -4 12 3 7 7 -4 12 -13 12
-20 0 -6 13 -33 30 -59 16 -26 26 -47 22 -47 -4 0 4 -10 18 -21 14 -11 18 -18
10 -14 -12 5 -12 4 1 -7 16 -14 33 -48 30 -61 -1 -5 3 -6 8 -2 6 3 15 -4 21
-15 6 -11 9 -20 6 -20 -2 0 9 -14 25 -31 16 -18 27 -34 25 -36 -3 -3 5 -15 17
-27 12 -11 24 -30 25 -41 2 -11 8 -24 14 -30 8 -7 8 -5 3 5 -4 8 1 6 12 -5 11
-11 19 -22 17 -24 -2 -2 6 -12 18 -22 11 -11 18 -19 14 -19 -4 0 3 -11 16 -25
35 -37 48 -53 48 -61 0 -4 10 -15 22 -25 11 -11 18 -19 14 -19 -3 0 9 -15 29
-34 19 -19 35 -38 35 -43 0 -4 18 -24 40 -43 22 -19 40 -39 40 -43 0 -13 27
-37 34 -30 5 6 7 -3 5 -23 0 -4 10 -12 23 -19 13 -6 22 -17 20 -23 -1 -7 5
-12 13 -12 9 0 21 -11 27 -25 6 -14 15 -25 19 -25 11 0 84 -71 84 -82 0 -4 5
-8 10 -9 16 -1 45 -31 39 -41 -3 -4 -2 -8 3 -7 18 3 36 -1 30 -7 -6 -7 16 -34
28 -34 4 0 23 -18 44 -40 20 -22 42 -40 47 -40 6 0 25 -16 42 -36 18 -20 32
-33 32 -28 0 4 8 -3 19 -14 10 -12 22 -22 27 -22 5 0 17 -8 26 -17 24 -25 40
-38 61 -46 9 -3 17 -14 17 -23 0 -10 3 -14 6 -11 10 10 44 -12 44 -29 0 -8 5
-12 10 -9 6 3 10 1 10 -5 0 -6 5 -8 11 -4 6 3 21 -5 34 -20 12 -14 25 -23 29
-19 3 3 6 0 6 -7 0 -7 3 -10 7 -7 3 4 15 -4 27 -16 12 -12 24 -24 28 -25 30
-10 37 -15 32 -23 -3 -5 -2 -9 3 -8 15 3 73 -23 68 -31 -3 -4 12 -15 33 -23
21 -8 44 -22 51 -31 7 -9 17 -13 22 -10 5 3 9 0 9 -6 0 -6 5 -8 10 -5 6 3 10
1 10 -5 0 -6 5 -8 10 -5 5 3 10 -1 10 -10 0 -9 4 -14 9 -10 5 3 12 1 16 -5 4
-6 11 -8 16 -5 5 4 9 1 9 -5 0 -6 5 -8 10 -5 6 3 10 -1 10 -10 0 -9 4 -13 10
-10 6 3 10 2 10 -2 0 -5 10 -10 22 -10 13 -1 28 -10 35 -19 7 -10 13 -14 13
-8 0 5 4 4 8 -1 7 -11 60 -38 77 -40 6 0 9 -6 8 -13 -2 -6 4 -9 12 -6 8 4 15
1 15 -7 0 -7 3 -9 7 -6 3 4 13 1 21 -6 13 -10 14 -9 8 1 -7 11 -4 12 13 3 11
-7 21 -14 21 -17 0 -3 -5 -2 -12 2 -7 4 -8 3 -4 -4 4 -6 13 -9 21 -5 8 3 15 0
15 -6 0 -6 3 -10 8 -9 14 4 72 -21 72 -31 0 -6 3 -10 8 -10 4 1 9 0 12 -1 3
-1 19 -4 35 -6 17 -3 37 -14 46 -26 9 -12 21 -18 28 -14 7 4 19 2 28 -6 9 -7
18 -12 20 -10 8 6 24 1 19 -6 -3 -5 0 -9 7 -10 18 -1 49 -9 78 -20 15 -6 30
-8 33 -5 3 4 6 -1 6 -10 0 -10 5 -14 15 -11 8 4 15 2 15 -3 0 -6 15 -11 33
-12 54 -3 57 -4 57 -13 0 -4 6 -7 13 -6 6 2 11 -2 10 -9 -2 -7 6 -10 17 -8 11
2 22 0 25 -5 3 -5 14 -7 25 -5 11 2 22 0 25 -5 3 -5 13 -6 22 -3 12 5 14 3 8
-7 -6 -10 -4 -12 8 -7 9 3 17 1 19 -4 2 -6 21 -12 43 -14 22 -1 41 -4 43 -5 1
-1 10 -3 20 -4 11 0 27 -8 37 -16 10 -8 31 -16 47 -16 15 -1 30 -3 33 -4 3 -1
19 -4 35 -5 17 -1 33 -4 38 -5 4 -1 15 -1 26 0 11 1 15 -3 12 -9 -4 -7 -1 -8
8 -5 9 3 16 1 16 -4 0 -6 9 -9 20 -7 11 2 20 1 20 -4 0 -4 10 -7 23 -8 37 -1
120 -11 152 -18 17 -4 36 -8 43 -8 6 0 12 -3 12 -7 0 -3 16 -6 35 -5 19 1 35
-1 35 -4 0 -4 39 -7 88 -8 80 -1 177 -8 177 -13 0 -1 11 -3 25 -4 14 0 30 -4
35 -7 6 -3 45 -5 87 -4 43 1 76 -1 73 -4 -3 -6 203 -6 215 -1 3 2 37 4 75 5
39 1 72 4 75 5 16 8 128 20 245 25 138 7 155 9 155 19 0 4 6 6 14 3 7 -3 19 0
26 6 10 9 11 9 5 -2 -5 -9 -1 -9 16 3 15 9 52 16 97 18 39 1 72 6 72 10 0 5
11 6 25 4 14 -3 23 -1 20 4 -6 10 23 22 36 14 5 -3 15 -2 22 3 6 4 23 8 37 8
14 0 30 3 35 6 6 3 22 5 37 4 16 -1 25 2 21 8 -4 6 0 8 10 4 9 -3 17 -1 19 5
5 13 28 19 85 21 22 1 39 6 35 11 -3 5 2 6 12 3 9 -4 15 -3 12 2 -3 5 1 12 10
15 10 4 13 2 8 -7 -5 -8 -2 -7 9 2 9 7 17 10 17 6 0 -4 7 -2 15 5 8 6 19 9 24
6 5 -4 12 -2 16 3 3 6 12 8 20 4 8 -3 15 0 15 7 0 6 5 8 10 5 6 -3 10 -1 10 5
0 6 5 8 10 5 6 -3 10 -1 10 5 0 7 7 10 15 7 8 -4 17 -2 21 4 3 5 14 7 25 4 11
-4 19 -2 19 5 0 7 7 10 15 7 8 -4 17 -1 21 5 5 7 2 8 -7 4 -8 -4 -6 -1 4 8 11
8 27 13 38 11 10 -2 21 1 25 6 3 5 14 7 25 4 12 -4 21 -1 25 9 3 9 10 13 15
10 5 -3 9 0 9 6 0 6 4 9 9 5 5 -3 12 -1 16 4 3 5 14 8 25 6 13 -3 18 0 14 7
-5 8 -1 9 10 5 10 -4 15 -3 11 3 -3 6 1 10 9 10 9 0 16 4 16 9 0 6 8 10 18 10
38 1 52 5 52 13 0 8 41 28 66 32 7 1 19 8 28 15 9 7 16 10 16 5 0 -4 6 0 13
11 8 10 19 15 25 11 6 -3 14 -1 17 5 4 5 13 8 21 5 8 -3 14 1 14 8 0 12 27 27
55 30 5 1 20 11 33 23 14 13 28 21 32 18 4 -3 20 5 36 17 16 13 25 16 20 8 -4
-8 0 -6 9 5 9 11 21 19 27 17 5 -1 18 6 28 18 9 11 25 20 34 20 9 0 16 4 16
10 0 5 8 7 18 3 9 -3 14 -2 9 2 -8 10 43 46 55 39 4 -3 8 0 8 6 0 6 5 8 10 5
6 -3 10 1 10 10 0 9 4 14 9 11 5 -4 11 -2 13 3 1 5 9 11 17 13 8 2 25 12 39
23 13 11 27 20 30 20 4 0 20 13 36 28 16 15 35 27 42 27 7 0 18 9 24 21 6 11
17 18 23 16 6 -2 23 10 38 26 15 16 32 27 37 23 6 -3 14 -1 18 5 4 8 3 9 -4 5
-7 -4 -12 -5 -12 -2 0 3 12 12 28 20 15 8 40 26 55 41 15 15 27 25 27 21 0 -3
8 2 19 12 68 64 102 92 108 92 5 0 14 9 21 20 7 12 18 18 25 14 7 -4 9 -4 5 1
-7 7 13 33 29 38 4 1 42 37 85 79 43 42 78 74 79 70 0 -4 4 3 10 16 5 14 13
20 20 16 7 -4 9 -3 6 3 -4 5 5 20 18 31 14 12 25 19 25 14 0 -4 9 8 20 26 12
20 25 30 32 26 7 -4 8 -3 4 4 -4 7 -2 12 4 12 6 0 9 4 5 9 -3 5 4 12 15 16 11
3 20 10 20 15 0 5 18 28 40 50 22 22 40 44 40 49 0 4 16 22 36 39 20 18 33 32
28 32 -4 0 3 8 14 19 12 10 22 24 22 30 0 6 7 14 15 17 8 4 15 13 15 20 0 8 7
17 15 20 8 4 15 12 15 20 0 7 6 17 13 21 6 4 17 17 24 28 6 11 16 19 22 17 6
-1 14 12 18 29 3 18 14 34 27 39 12 5 17 9 12 9 -5 1 -1 10 9 21 10 11 15 20
11 20 -4 0 4 11 18 23 14 13 23 27 19 30 -3 4 -1 7 5 7 7 0 11 6 10 13 -2 6 3
11 10 9 6 -1 11 1 10 5 -2 14 15 48 31 60 9 6 16 15 16 20 2 20 17 53 26 53 5
0 9 7 9 15 0 8 5 15 10 15 6 0 9 3 8 8 -3 14 25 61 33 56 7 -4 13 20 7 29 -5
7 24 46 33 44 6 -1 13 9 15 23 5 33 25 70 34 65 4 -3 11 11 14 30 4 19 11 35
17 35 6 0 7 5 4 10 -3 6 -1 10 4 10 6 0 11 7 11 15 0 8 5 15 12 15 6 0 8 3 5
7 -4 3 -1 13 6 21 10 13 9 14 -2 8 -8 -6 -7 0 4 18 10 14 21 26 25 26 5 0 7 8
6 17 -3 19 22 73 33 73 4 0 8 7 9 15 1 8 3 22 4 30 1 8 5 15 9 15 5 0 6 6 3
14 -3 8 0 17 7 22 8 5 10 3 4 -6 -6 -9 -4 -11 4 -6 7 5 10 14 7 22 -3 8 -1 14
4 14 5 0 7 6 4 14 -3 8 0 17 5 21 6 3 9 11 6 16 -4 5 0 12 9 15 9 3 12 12 9
21 -5 12 -3 14 7 8 10 -6 12 -4 7 8 -3 10 -3 17 1 17 5 0 9 10 9 23 3 41 11
62 23 59 8 -2 11 4 7 18 -3 11 -1 20 5 20 5 0 6 5 3 10 -3 6 -3 16 2 23 4 6 8
17 9 22 3 22 17 55 23 55 8 0 10 9 13 55 1 14 6 25 12 25 5 0 6 3 3 7 -4 3 -1
13 6 21 9 13 9 14 0 8 -18 -10 -16 -1 2 18 9 9 18 30 19 48 7 69 18 108 29
101 6 -4 8 0 4 10 -3 10 -2 17 3 17 5 0 7 10 5 22 -3 12 -1 26 4 32 4 6 7 23
6 39 -1 15 2 27 7 27 5 0 6 5 3 10 -4 6 -1 18 7 27 11 14 11 16 -1 8 -8 -5 -4
7 9 25 13 18 18 30 10 25 -10 -6 -11 -4 -4 6 5 8 10 30 11 49 4 47 11 105 13
105 2 0 7 30 12 73 1 6 4 12 7 12 7 0 9 29 13 150 2 47 6 90 9 95 4 6 5 31 4
58 -2 26 1 49 5 52 5 3 7 17 4 31 -3 14 -1 23 4 20 4 -2 7 42 7 100 -1 57 1
104 5 104 3 0 5 45 5 99 0 55 -2 98 -6 96 -3 -3 -5 27 -4 65 0 38 -2 67 -6 64
-4 -2 -8 4 -9 13 0 10 -3 50 -5 88 -3 39 -7 108 -9 155 -2 47 -5 86 -6 88 -1
1 -3 10 -4 20 -1 9 -5 22 -9 29 -4 6 -4 19 0 29 5 13 3 15 -7 9 -10 -6 -12 -4
-7 8 3 9 2 17 -3 19 -4 2 -10 41 -13 88 -3 47 -6 87 -7 90 -1 3 -3 10 -4 16 0
6 -8 17 -17 26 -11 11 -15 32 -14 67 1 28 -2 51 -6 51 -4 0 -6 8 -4 18 1 9 -5
26 -14 36 -13 16 -13 18 -1 12 8 -4 6 0 -5 8 -15 13 -19 30 -21 82 -1 44 -6
69 -15 75 -8 5 -9 9 -4 9 6 0 4 4 -4 9 -15 10 -20 26 -23 79 0 17 -6 32 -11
32 -6 0 -8 3 -4 6 3 3 -3 14 -13 24 -13 13 -18 30 -16 59 2 22 -1 38 -6 35 -4
-3 -8 1 -8 8 0 8 -5 19 -12 26 -13 13 -18 31 -21 75 -1 15 -9 32 -17 37 -8 5
-11 10 -6 10 5 0 3 6 -3 13 -6 8 -8 17 -4 20 3 4 1 7 -4 7 -6 0 -10 11 -8 25
1 15 -4 29 -14 35 -9 5 -11 10 -6 10 6 0 4 4 -3 9 -7 4 -14 14 -15 22 -2 8 -6
20 -10 27 -5 6 -5 16 -2 22 3 6 1 10 -5 10 -11 0 -36 58 -32 73 1 4 -3 7 -9 7
-6 0 -9 7 -5 15 3 9 -3 19 -15 25 -11 6 -17 15 -14 20 3 5 1 11 -5 15 -6 4 -8
10 -5 15 3 4 -2 13 -10 20 -8 7 -15 19 -15 26 0 8 -4 14 -10 14 -5 0 -7 7 -4
15 4 8 1 15 -6 15 -7 0 -10 7 -6 17 4 10 4 14 0 10 -9 -9 -34 26 -39 56 -3 12
-12 27 -20 34 -9 6 -17 20 -18 31 0 11 -4 19 -8 16 -4 -2 -10 3 -13 12 -4 10
-2 13 6 8 7 -4 8 -3 4 4 -4 7 -14 12 -22 12 -8 0 -12 5 -9 10 3 6 1 10 -5 10
-7 0 -9 7 -6 15 3 9 -1 18 -9 21 -8 4 -13 10 -10 14 3 4 -2 10 -10 14 -8 3
-15 15 -15 26 0 11 -4 20 -10 20 -5 0 -19 18 -30 40 -11 22 -26 40 -32 40 -6
0 -8 3 -5 7 4 4 -5 20 -20 37 -16 17 -21 26 -13 21 9 -6 6 -1 -7 10 -13 12
-23 25 -23 29 0 5 -8 15 -17 23 -12 10 -13 12 -3 8 8 -4 6 1 -4 9 -11 9 -17
16 -13 16 9 0 -9 22 -40 52 -12 12 -20 24 -18 28 2 3 -7 14 -20 24 -15 11 -21
24 -18 34 4 9 2 13 -4 9 -5 -3 -17 3 -26 14 -9 10 -15 19 -12 19 2 0 -6 11
-18 24 -39 42 -46 54 -39 62 4 4 2 4 -5 0 -7 -4 -17 3 -24 16 -7 13 -22 31
-33 42 -12 10 -20 23 -18 28 1 5 -2 7 -7 4 -10 -7 -47 44 -42 59 1 5 0 7 -4 3
-8 -8 -85 65 -85 81 0 7 -4 10 -9 7 -5 -3 -15 2 -22 11 -12 14 -12 16 1 8 8
-4 4 3 -10 16 -13 13 -28 23 -32 22 -8 -3 -12 13 -9 30 1 5 -2 6 -7 3 -5 -3
-18 2 -28 10 -10 9 -13 12 -5 8 9 -5 12 -3 7 4 -4 7 -12 12 -18 12 -6 0 -35
24 -64 54 -28 30 -54 53 -57 50 -2 -2 -10 3 -18 13 -12 14 -12 16 0 8 10 -5
12 -4 7 3 -4 7 -13 12 -19 12 -7 0 -25 14 -40 31 -15 17 -27 28 -27 24 0 -4
-7 -2 -15 5 -8 7 -12 17 -8 23 3 6 1 7 -5 3 -7 -4 -12 -3 -12 3 0 5 -9 12 -19
16 -11 3 -23 15 -26 25 -3 11 -12 17 -20 14 -8 -3 -21 6 -30 20 -10 14 -21 24
-25 21 -4 -2 -16 6 -26 20 -10 13 -21 22 -25 19 -4 -2 -10 3 -13 12 -3 8 -10
13 -15 9 -5 -3 -12 4 -16 15 -4 11 -11 18 -16 15 -5 -4 -9 -1 -9 5 0 6 -4 8
-10 5 -5 -3 -21 6 -35 21 -14 15 -25 24 -25 20 0 -4 -6 -2 -12 4 -47 39 -63
50 -79 55 -11 4 -17 10 -14 15 3 4 -7 11 -21 14 -31 8 -56 30 -46 41 4 5 -1 5
-10 2 -10 -4 -18 -2 -18 4 0 6 -4 8 -9 5 -5 -3 -17 2 -28 12 -10 9 -12 13 -3
7 13 -9 13 -8 2 7 -8 9 -20 14 -28 11 -8 -3 -14 0 -14 7 0 6 -4 8 -10 5 -5 -3
-10 -1 -10 5 0 6 -4 8 -10 5 -5 -3 -10 1 -10 9 0 10 -6 13 -15 10 -8 -4 -15
-1 -15 7 0 7 -3 9 -7 6 -3 -4 -12 1 -20 11 -8 9 -12 11 -8 4 3 -7 -10 -1 -30
13 -21 13 -41 23 -45 20 -4 -3 -14 3 -21 12 -12 14 -12 16 0 8 10 -5 12 -4 7
4 -4 6 -11 9 -16 6 -5 -3 -11 -1 -15 4 -3 6 -12 8 -20 4 -8 -3 -15 0 -15 6 0
6 -6 10 -12 9 -7 -2 -12 2 -11 9 2 7 -4 10 -12 7 -8 -4 -15 -1 -15 6 0 6 -4 9
-9 5 -5 -3 -12 -1 -16 5 -4 6 -10 8 -15 5 -5 -3 -14 3 -20 14 -6 12 -16 18
-25 15 -8 -4 -15 -2 -15 3 0 5 -10 9 -22 10 -11 1 -24 7 -28 13 -4 7 -11 12
-16 13 -5 1 -8 5 -7 9 2 4 -6 5 -17 3 -11 -2 -22 1 -25 6 -4 5 -11 7 -16 4 -5
-4 -9 -1 -9 5 0 6 -4 8 -10 5 -5 -3 -10 -1 -10 6 0 7 -3 9 -7 6 -3 -4 -12 1
-20 11 -9 10 -11 11 -7 2 7 -13 5 -13 -9 -1 -9 7 -17 10 -17 6 0 -4 -12 0 -26
10 -18 11 -24 13 -19 4 5 -8 -1 -6 -12 4 -12 10 -30 20 -40 22 -10 2 -18 4
-18 5 0 1 -15 3 -34 5 -18 2 -39 9 -45 16 -8 9 -8 10 3 4 9 -5 12 -4 7 3 -4 6
-14 8 -23 5 -9 -4 -14 -2 -10 3 3 6 -6 9 -21 9 -15 -1 -31 2 -37 6 -5 4 -13 8
-17 9 -37 9 -47 13 -44 19 3 4 -3 7 -12 8 -9 1 -31 4 -48 5 -17 2 -39 10 -49
18 -17 13 -18 13 -10 0 6 -10 2 -10 -12 3 -12 10 -42 19 -73 22 -30 3 -57 10
-61 16 -4 6 -11 9 -17 5 -6 -3 -12 -1 -14 5 -2 7 -17 12 -33 13 -17 1 -34 4
-40 7 -5 3 -22 5 -37 4 -16 -1 -28 2 -28 7 0 5 -5 6 -10 3 -6 -4 -18 -1 -27 7
-12 9 -15 9 -9 1 5 -9 2 -11 -8 -7 -9 3 -14 10 -11 14 3 5 -6 7 -20 4 -14 -2
-25 -1 -25 4 0 7 -53 13 -122 14 -16 0 -28 5 -28 10 0 5 -5 6 -10 3 -6 -4 -16
-2 -23 3 -7 5 -20 8 -29 7 -10 -2 -18 0 -18 4 0 4 -10 7 -22 6 -13 -1 -29 3
-37 9 -12 9 -13 8 -6 -3 6 -11 5 -12 -6 -5 -8 4 -45 10 -84 11 -38 2 -98 4
-132 6 -34 1 -64 5 -68 9 -4 4 -13 4 -21 1 -8 -3 -14 -1 -14 4 0 6 -27 9 -60
8 -33 -1 -60 1 -60 4 0 3 -58 6 -129 6 -71 0 -127 -3 -125 -6z"/>
</g>
</svg>
